<svg width="385" height="99" viewBox="0 0 385 99" fill="none" xmlns="http://www.w3.org/2000/svg">
<rect x="44.1487" y="2" width="20" height="95" transform="rotate(25 44.1487 2)" fill="#E0DDDD"/>
<rect x="104.149" y="2" width="20" height="95" transform="rotate(25 104.149 2)" fill="#E0DDDD"/>
<rect x="74.1487" y="2" width="20" height="95" transform="rotate(25 74.1487 2)" fill="#E0DDDD"/>
<path d="M151.195 69.2758V29.6758H157.735V69.2758H151.195ZM152.935 69.2758V63.6358H175.615V69.2758H152.935ZM194.219 70.0558C191.219 70.0558 188.559 69.4158 186.239 68.1358C183.919 66.8558 182.099 64.9958 180.779 62.5558C179.499 60.1158 178.859 57.1158 178.859 53.5558C178.859 49.9158 179.539 46.8958 180.899 44.4958C182.259 42.0958 184.079 40.2958 186.359 39.0958C188.679 37.8958 191.279 37.2958 194.159 37.2958C197.119 37.2958 199.759 37.9158 202.079 39.1558C204.399 40.3958 206.219 42.2358 207.539 44.6758C208.899 47.1158 209.579 50.1558 209.579 53.7958C209.579 57.3958 208.899 60.4158 207.539 62.8558C206.219 65.2558 204.399 67.0558 202.079 68.2558C199.759 69.4558 197.139 70.0558 194.219 70.0558ZM194.459 64.8958C196.259 64.8958 197.799 64.4758 199.079 63.6358C200.359 62.7958 201.339 61.5558 202.019 59.9158C202.699 58.2758 203.039 56.3158 203.039 54.0358C203.039 51.6758 202.679 49.6558 201.959 47.9758C201.239 46.2558 200.199 44.9358 198.839 44.0158C197.519 43.0958 195.899 42.6358 193.979 42.6358C192.259 42.6358 190.739 43.0558 189.419 43.8958C188.139 44.6958 187.159 45.9158 186.479 47.5558C185.799 49.1558 185.459 51.1158 185.459 53.4358C185.459 57.0758 186.259 59.8958 187.859 61.8958C189.459 63.8958 191.659 64.8958 194.459 64.8958ZM216.81 79.1158V53.7958V38.0758H222.45L222.27 46.2958L223.23 46.3558C223.67 44.4758 224.33 42.8758 225.21 41.5558C226.09 40.1958 227.21 39.1558 228.57 38.4358C229.97 37.6758 231.63 37.2958 233.55 37.2958C236.35 37.2958 238.71 37.9958 240.63 39.3958C242.59 40.7958 244.05 42.7358 245.01 45.2158C246.01 47.6958 246.51 50.5358 246.51 53.7358C246.51 56.8558 246.03 59.6558 245.07 62.1358C244.15 64.5758 242.75 66.5158 240.87 67.9558C238.99 69.3558 236.69 70.0558 233.97 70.0558C231.85 70.0558 230.09 69.6358 228.69 68.7958C227.29 67.9158 226.15 66.7758 225.27 65.3758C224.39 63.9358 223.71 62.3558 223.23 60.6358H222.15C222.39 61.7158 222.59 62.8358 222.75 63.9958C222.91 65.1158 223.05 66.2358 223.17 67.3558C223.29 68.4758 223.35 69.5358 223.35 70.5358V79.1158H216.81ZM232.05 64.5958C233.69 64.5958 235.07 64.1358 236.19 63.2158C237.35 62.2558 238.23 60.9558 238.83 59.3158C239.43 57.6758 239.73 55.7958 239.73 53.6758C239.73 51.4758 239.41 49.5758 238.77 47.9758C238.17 46.3758 237.29 45.1358 236.13 44.2558C234.97 43.3358 233.59 42.8758 231.99 42.8758C230.59 42.8758 229.35 43.1958 228.27 43.8358C227.19 44.4758 226.27 45.3158 225.51 46.3558C224.79 47.3558 224.23 48.4758 223.83 49.7158C223.47 50.9158 223.29 52.0958 223.29 53.2558V54.1558C223.29 54.9558 223.41 55.8158 223.65 56.7358C223.89 57.6558 224.23 58.5758 224.67 59.4958C225.15 60.4158 225.73 61.2758 226.41 62.0758C227.13 62.8358 227.95 63.4558 228.87 63.9358C229.83 64.3758 230.89 64.5958 232.05 64.5958ZM253.9 69.2758V50.1358V26.9758H260.5V36.6958C260.5 37.5358 260.48 38.4158 260.44 39.3358C260.4 40.2158 260.32 41.1158 260.2 42.0358C260.08 42.9558 259.96 43.8758 259.84 44.7958C259.72 45.7158 259.58 46.6558 259.42 47.6158H260.5C261.1 45.3758 261.84 43.4958 262.72 41.9758C263.64 40.4158 264.78 39.2558 266.14 38.4958C267.54 37.6958 269.22 37.2958 271.18 37.2958C274.78 37.2958 277.46 38.5558 279.22 41.0758C280.98 43.5558 281.86 47.2958 281.86 52.2958V69.2758H275.26V53.1358C275.26 49.6158 274.72 47.0358 273.64 45.3958C272.6 43.7558 271.02 42.9358 268.9 42.9358C267.14 42.9358 265.66 43.4558 264.46 44.4958C263.3 45.5358 262.38 46.9358 261.7 48.6958C261.02 50.4558 260.58 52.4558 260.38 54.6958V69.2758H253.9ZM300.604 70.0558C297.084 70.0558 294.424 68.8558 292.624 66.4558C290.824 64.0158 289.924 60.3558 289.924 55.4758V38.0758H296.464V54.7558C296.464 58.0358 296.964 60.4758 297.964 62.0758C298.964 63.6758 300.544 64.4758 302.704 64.4758C303.904 64.4758 304.964 64.1758 305.884 63.5758C306.804 62.9758 307.604 62.1358 308.284 61.0558C309.004 59.9758 309.564 58.7158 309.964 57.2758C310.404 55.7958 310.704 54.1758 310.864 52.4158V38.0758H317.344V56.3158V69.2758H311.824L312.124 59.3758H311.104C310.584 61.8558 309.844 63.8958 308.884 65.4958C307.964 67.0558 306.804 68.2158 305.404 68.9758C304.044 69.6958 302.444 70.0558 300.604 70.0558ZM326.322 69.2758V53.0158V38.0758H331.962L331.662 48.8758H332.682C333.042 46.4358 333.602 44.3558 334.362 42.6358C335.122 40.9158 336.162 39.6158 337.482 38.7358C338.802 37.8158 340.442 37.3558 342.402 37.3558C342.802 37.3558 343.242 37.3758 343.722 37.4158C344.202 37.4558 344.742 37.5758 345.342 37.7758L345.042 44.6158C344.442 44.3758 343.822 44.2158 343.182 44.1358C342.542 44.0158 341.962 43.9558 341.442 43.9558C339.842 43.9558 338.482 44.4158 337.362 45.3358C336.242 46.2158 335.302 47.4558 334.542 49.0558C333.822 50.6158 333.262 52.4358 332.862 54.5158V69.2758H326.322ZM357.721 70.0558C356.001 70.0558 354.461 69.7358 353.101 69.0958C351.741 68.4158 350.661 67.4158 349.861 66.0958C349.101 64.7758 348.721 63.1358 348.721 61.1758C348.721 59.6158 349.001 58.2758 349.561 57.1558C350.161 55.9958 351.041 55.0358 352.201 54.2758C353.401 53.4758 354.921 52.8358 356.761 52.3558C358.601 51.8358 360.781 51.3958 363.301 51.0358C364.701 50.8358 365.841 50.6358 366.721 50.4358C367.641 50.2358 368.301 49.9158 368.701 49.4758C369.141 49.0358 369.361 48.3758 369.361 47.4958C369.361 46.1358 368.881 44.9758 367.921 44.0158C367.001 43.0158 365.501 42.5158 363.421 42.5158C362.261 42.5158 361.101 42.7158 359.941 43.1158C358.821 43.5158 357.841 44.1758 357.001 45.0958C356.201 45.9758 355.661 47.1758 355.381 48.6958L349.501 46.8358C349.861 45.3158 350.441 43.9758 351.241 42.8158C352.041 41.6158 353.041 40.6158 354.241 39.8158C355.441 38.9758 356.821 38.3558 358.381 37.9558C359.981 37.5158 361.721 37.2958 363.601 37.2958C366.361 37.2958 368.641 37.7558 370.441 38.6758C372.241 39.5958 373.581 41.0158 374.461 42.9358C375.381 44.8158 375.841 47.2358 375.841 50.1958V56.5558C375.841 57.8758 375.861 59.2758 375.901 60.7558C375.981 62.1958 376.061 63.6558 376.141 65.1358C376.261 66.5758 376.401 67.9558 376.561 69.2758H370.621C370.501 68.0758 370.381 66.8358 370.261 65.5558C370.181 64.2758 370.101 62.9758 370.021 61.6558H369.121C368.561 63.1758 367.761 64.5758 366.721 65.8558C365.721 67.1358 364.461 68.1558 362.941 68.9158C361.461 69.6758 359.721 70.0558 357.721 70.0558ZM360.001 65.0158C360.841 65.0158 361.681 64.8758 362.521 64.5958C363.401 64.3158 364.261 63.8958 365.101 63.3358C365.981 62.7358 366.781 61.9758 367.501 61.0558C368.261 60.1358 368.921 59.0358 369.481 57.7558L369.421 52.1158L370.981 52.4158C370.301 53.0158 369.441 53.4758 368.401 53.7958C367.401 54.1158 366.301 54.3758 365.101 54.5758C363.901 54.7358 362.701 54.9358 361.501 55.1758C360.341 55.3758 359.261 55.6758 358.261 56.0758C357.301 56.4358 356.521 56.9558 355.921 57.6358C355.361 58.3158 355.081 59.2558 355.081 60.4558C355.081 61.9358 355.541 63.0758 356.461 63.8758C357.381 64.6358 358.561 65.0158 360.001 65.0158Z" fill="#E0DDDD"/>
</svg>
